<svg width="130" height="17" viewBox="0 0 130 17" fill="none" xmlns="http://www.w3.org/2000/svg">
<path d="M0.515457 16.4424C0.230778 16.4424 0 16.2116 0 15.9269V0.739772C0 0.455093 0.230778 0.224316 0.515457 0.224316H3.1181C3.40278 0.224316 3.63355 0.455094 3.63355 0.739773V6.24834C3.63355 6.72777 4.23078 6.94753 4.54153 6.58243L9.79893 0.405675C9.89687 0.290613 10.0404 0.224316 10.1915 0.224316H12.866C13.3037 0.224316 13.5422 0.735429 13.261 1.07089L8.94088 6.22512C8.80026 6.39289 8.78094 6.63117 8.8927 6.81939L14.1439 15.6638C14.3479 16.0074 14.1003 16.4424 13.7007 16.4424H11.0825C10.9026 16.4424 10.7357 16.3486 10.6421 16.1949L6.56267 9.49046C6.38238 9.19416 5.96681 9.1569 5.73667 9.41639L3.76336 11.6415C3.67973 11.7358 3.63355 11.8574 3.63355 11.9835V15.9269C3.63355 16.2116 3.40278 16.4424 3.1181 16.4424H0.515457Z" fill="black"/>
<path d="M17.707 16.4424C17.4223 16.4424 17.1916 16.2116 17.1916 15.9269V0.739772C17.1916 0.455093 17.4223 0.224316 17.707 0.224316H20.1657C20.4504 0.224316 20.6812 0.455094 20.6812 0.739773V15.9269C20.6812 16.2116 20.4504 16.4424 20.1657 16.4424H17.707Z" fill="black"/>
<path d="M25.0849 16.4424C24.8002 16.4424 24.5694 16.2116 24.5694 15.9269V0.739772C24.5694 0.455093 24.8002 0.224316 25.0849 0.224316H27.7747C27.9384 0.224316 28.0924 0.302092 28.1896 0.433861L35.0194 9.6962C35.3147 10.0966 35.9497 9.88777 35.9497 9.39028V0.739773C35.9497 0.455094 36.1805 0.224316 36.4652 0.224316H38.9359C39.2206 0.224316 39.4514 0.455094 39.4514 0.739773V15.9269C39.4514 16.2116 39.2206 16.4424 38.9359 16.4424H36.5577C36.3941 16.4424 36.2402 16.3647 36.143 16.2331L28.9892 6.54263C28.6938 6.14251 28.059 6.35143 28.059 6.84877V15.9269C28.059 16.2116 27.8283 16.4424 27.5436 16.4424H25.0849Z" fill="black"/>
<path d="M43.8457 16.4424C43.561 16.4424 43.3302 16.2116 43.3302 15.9269V0.739772C43.3302 0.455093 43.561 0.224316 43.8457 0.224316H54.6125C54.8981 0.224316 55.1292 0.456473 55.128 0.742031L55.1205 2.44778C55.1193 2.73157 54.8889 2.96098 54.6051 2.96098H47.3713C47.0866 2.96098 46.8558 3.19176 46.8558 3.47644V6.51686C46.8558 6.80154 47.0866 7.03232 47.3713 7.03232H53.4996C53.7842 7.03232 54.015 7.2631 54.015 7.54778V9.19745C54.015 9.48213 53.7842 9.7129 53.4996 9.7129H47.3713C47.0866 9.7129 46.8558 9.94368 46.8558 10.2284V15.9269C46.8558 16.2116 46.6251 16.4424 46.3404 16.4424H43.8457Z" fill="black"/>
<path d="M65.2462 16.6667C63.6073 16.6667 62.1883 16.334 60.9891 15.6685C59.7979 14.9956 58.8745 14.0422 58.2189 12.8085C57.5714 11.5673 57.2476 10.0868 57.2476 8.36701C57.2476 6.63977 57.5754 5.1518 58.2309 3.90311C58.8945 2.65441 59.8259 1.69359 61.025 1.02064C62.2242 0.340213 63.6313 0 65.2462 0C66.8531 0 68.2522 0.336475 69.4434 1.00942C70.6346 1.68237 71.554 2.6432 72.2015 3.89189C72.8571 5.14059 73.1849 6.63229 73.1849 8.36701C73.1849 10.0793 72.8611 11.556 72.2135 12.7973C71.5739 14.0385 70.6586 14.9956 69.4674 15.6685C68.2762 16.334 66.8691 16.6667 65.2462 16.6667ZM65.2462 13.9749C66.0936 13.9749 66.8251 13.788 67.4407 13.4141C68.0643 13.0328 68.544 12.4346 68.8798 11.6196C69.2155 10.7971 69.3834 9.72786 69.3834 8.41187C69.3834 7.05849 69.2115 5.96308 68.8678 5.12563C68.532 4.28818 68.0523 3.67505 67.4287 3.28624C66.8131 2.88994 66.0856 2.6918 65.2462 2.6918C64.4068 2.6918 63.6753 2.88994 63.0517 3.28624C62.4281 3.67505 61.9444 4.29192 61.6007 5.13685C61.2569 5.9743 61.085 7.06597 61.085 8.41187C61.085 9.73534 61.2569 10.8046 61.6007 11.6196C61.9444 12.4346 62.4281 13.0328 63.0517 13.4141C63.6753 13.788 64.4068 13.9749 65.2462 13.9749Z" fill="black"/>
<path d="M76.8 16.4424C76.5154 16.4424 76.2846 16.2116 76.2846 15.9269V0.739772C76.2846 0.455093 76.5154 0.224316 76.8 0.224316H83.5997C84.9827 0.224316 86.114 0.42994 86.9934 0.841187C87.8728 1.25243 88.5203 1.82444 88.9361 2.55721C89.3518 3.2825 89.5596 4.11995 89.5596 5.06955C89.5596 5.92196 89.4157 6.64351 89.1279 7.23421C88.8481 7.81743 88.4764 8.30345 88.0127 8.69226C87.6909 8.96678 87.3473 9.20589 86.9817 9.40959C86.73 9.54982 86.615 9.859 86.7385 10.1193L89.39 15.7059C89.5523 16.0479 89.3029 16.4424 88.9243 16.4424H86.4389C86.2363 16.4424 86.0524 16.3236 85.9691 16.1389L83.4248 10.4987C83.3414 10.3139 83.1576 10.1952 82.9549 10.1952H80.2897C80.005 10.1952 79.7742 10.426 79.7742 10.7106V15.9269C79.7742 16.2116 79.5435 16.4424 79.2588 16.4424H76.8ZM79.7742 7.15617C79.7742 7.44085 80.005 7.67162 80.2897 7.67162H82.9761C83.9114 7.67162 84.6509 7.43609 85.1946 6.96503C85.7462 6.49396 86.022 5.88831 86.022 5.14806C86.022 4.40034 85.7582 3.80964 85.2306 3.37596C84.7029 2.94228 84.0354 2.72545 83.2279 2.72545H80.2897C80.005 2.72545 79.7742 2.95622 79.7742 3.2409V7.15617Z" fill="black"/>
<path d="M93.4997 16.4424C93.2151 16.4424 92.9843 16.2116 92.9843 15.9269V0.739772C92.9843 0.455093 93.2151 0.224316 93.4997 0.224316H97.7008C97.921 0.224316 98.1169 0.364169 98.1883 0.572421L101.553 10.3739C101.712 10.8374 102.367 10.8383 102.527 10.3753L105.923 0.571066C105.995 0.363511 106.191 0.224316 106.41 0.224316H110.601C110.885 0.224316 111.116 0.455094 111.116 0.739773V15.9269C111.116 16.2116 110.885 16.4424 110.601 16.4424H108.094C107.809 16.4424 107.578 16.2116 107.578 15.9269V7.18645C107.578 6.60253 106.761 6.46865 106.574 7.02209L103.523 16.0913C103.453 16.3011 103.256 16.4424 103.035 16.4424H101.03C100.808 16.4424 100.612 16.301 100.541 16.0911L97.514 7.08203C97.328 6.52842 96.5099 6.66218 96.5099 7.24621V15.9269C96.5099 16.2116 96.2791 16.4424 95.9944 16.4424H93.4997Z" fill="black"/>
<path d="M114.466 16.8337C114.105 16.8337 113.856 16.4717 113.985 16.1342L119.791 0.947012C119.867 0.747433 120.059 0.615614 120.272 0.615614H123.268C123.482 0.615614 123.673 0.747434 123.75 0.947014L129.555 16.1342C129.684 16.4717 129.435 16.8337 129.074 16.8337H126.69C126.475 16.8337 126.283 16.7007 126.207 16.4999L125.044 13.4102C124.968 13.2094 124.776 13.0764 124.561 13.0764H119.025C118.811 13.0764 118.62 13.2081 118.543 13.4075L117.358 16.5026C117.282 16.702 117.09 16.8337 116.877 16.8337H114.466ZM119.709 9.52679C119.589 9.86261 119.838 10.2164 120.194 10.2164H123.337C123.693 10.2164 123.941 9.86393 123.822 9.52839L122.259 5.12779C122.097 4.67133 121.452 4.67026 121.288 5.12619L119.709 9.52679Z" fill="black"/>
</svg>
