<svg width="48" height="39" viewBox="0 0 48 39" fill="none" xmlns="http://www.w3.org/2000/svg">
<path d="M9.61621 18.1589C9.61621 18.7518 10.0969 19.2324 10.6898 19.2324H18.0524C18.6453 19.2324 19.126 18.7518 19.126 18.1589V10.7943C19.126 10.2014 19.6066 9.7207 20.1995 9.7207H27.6686C28.2615 9.7207 28.7422 10.2014 28.7422 10.7943V18.2643C28.7422 18.8572 28.2615 19.3379 27.6686 19.3379H20.306C19.7131 19.3379 19.2324 19.8185 19.2324 20.4115V27.6149C19.2324 28.2078 19.7131 28.6885 20.306 28.6885H27.6256C28.2186 28.6885 28.6992 29.1691 28.6992 29.762V37.2321C28.6992 37.825 28.2186 38.3057 27.6256 38.3057H20.1566C19.5637 38.3057 19.083 37.825 19.083 37.2321V29.9222C19.083 29.3293 18.6024 28.8486 18.0094 28.8486H10.6898C10.0969 28.8486 9.61621 29.3293 9.61621 29.9222V37.3913C9.61621 37.9842 9.13556 38.4648 8.54264 38.4648H1.07357C0.480654 38.4648 0 37.9842 0 37.3913V1.07357C0 0.480653 0.480654 0 1.07357 0H8.54264C9.13556 0 9.61621 0.480654 9.61621 1.07357V18.1589ZM47.9463 37.2321C47.9463 37.825 47.4656 38.3057 46.8727 38.3057H39.4036C38.8107 38.3057 38.3301 37.825 38.3301 37.2321V29.762C38.3301 29.1691 38.8107 28.6885 39.4036 28.6885H46.8727C47.4656 28.6885 47.9463 29.1691 47.9463 29.762V37.2321Z" fill="black"/>
</svg>
