<svg width="34" height="28" viewBox="0 0 34 28" fill="none" xmlns="http://www.w3.org/2000/svg">
<path d="M6.80176 12.2163C6.80176 12.9824 7.42285 13.6035 8.18901 13.6035H12.1411C12.9072 13.6035 13.5283 12.9824 13.5283 12.2163V8.26225C13.5283 7.49609 14.1494 6.875 14.9156 6.875H18.9428C19.709 6.875 20.3301 7.49609 20.3301 8.26225V12.2895C20.3301 13.0557 19.709 13.6768 18.9428 13.6768H14.9908C14.2246 13.6768 13.6035 14.2979 13.6035 15.064V18.9282C13.6035 19.6943 14.2246 20.3154 14.9908 20.3154H18.9516C19.7178 20.3154 20.3389 20.9365 20.3389 21.7027V25.7299C20.3389 26.4961 19.7178 27.1172 18.9516 27.1172H14.9244C14.1582 27.1172 13.5371 26.4961 13.5371 25.7299V21.7925C13.5371 21.0264 12.916 20.4053 12.1499 20.4053H8.18901C7.42285 20.4053 6.80176 21.0264 6.80176 21.7925V25.8188C6.80176 26.585 6.18066 27.2061 5.41451 27.2061H1.38725C0.621093 27.2061 0 26.585 0 25.8188V1.38725C0 0.621093 0.621094 0 1.38725 0H5.41451C6.18066 0 6.80176 0.621094 6.80176 1.38725V12.2163ZM33.8574 25.7299C33.8574 26.4961 33.2363 27.1172 32.4702 27.1172H28.4429C27.6768 27.1172 27.0557 26.4961 27.0557 25.7299V21.7027C27.0557 20.9365 27.6768 20.3154 28.4429 20.3154H32.4702C33.2363 20.3154 33.8574 20.9365 33.8574 21.7027V25.7299Z" fill="black"/>
</svg>
