<svg width="19" height="19" viewBox="0 0 19 19" fill="none" xmlns="http://www.w3.org/2000/svg">
<path d="M7.91683 11.8752L12.0256 9.50016L7.91683 7.12516V11.8752ZM17.0685 5.67641C17.1714 6.0485 17.2427 6.54725 17.2902 7.18058C17.3456 7.81391 17.3693 8.36016 17.3693 8.83516L17.4168 9.50016C17.4168 11.2339 17.2902 12.5085 17.0685 13.3239C16.8706 14.0364 16.4114 14.4956 15.6989 14.6935C15.3268 14.7964 14.646 14.8677 13.601 14.9152C12.5718 14.9706 11.6297 14.9943 10.7589 14.9943L9.50016 15.0418C6.18308 15.0418 4.11683 14.9152 3.30141 14.6935C2.58891 14.4956 2.12975 14.0364 1.93183 13.3239C1.82891 12.9518 1.75766 12.4531 1.71016 11.8197C1.65475 11.1864 1.631 10.6402 1.631 10.1652L1.5835 9.50016C1.5835 7.76641 1.71016 6.49183 1.93183 5.67641C2.12975 4.96391 2.58891 4.50475 3.30141 4.30683C3.6735 4.20391 4.35433 4.13266 5.39933 4.08516C6.4285 4.02975 7.37058 4.006 8.24141 4.006L9.50016 3.9585C12.8172 3.9585 14.8835 4.08516 15.6989 4.30683C16.4114 4.50475 16.8706 4.96391 17.0685 5.67641Z" fill="black"/>
</svg>
