<svg width="19" height="19" viewBox="0 0 19 19" fill="none" xmlns="http://www.w3.org/2000/svg">
<path d="M6.17516 1.5835H12.8252C15.3585 1.5835 17.4168 3.64183 17.4168 6.17516V12.8252C17.4168 14.0429 16.9331 15.2109 16.072 16.072C15.2109 16.9331 14.0429 17.4168 12.8252 17.4168H6.17516C3.64183 17.4168 1.5835 15.3585 1.5835 12.8252V6.17516C1.5835 4.95738 2.06726 3.78947 2.92836 2.92836C3.78947 2.06726 4.95738 1.5835 6.17516 1.5835ZM6.01683 3.16683C5.26096 3.16683 4.53605 3.4671 4.00158 4.00158C3.4671 4.53605 3.16683 5.26096 3.16683 6.01683V12.9835C3.16683 14.5589 4.44141 15.8335 6.01683 15.8335H12.9835C13.7394 15.8335 14.4643 15.5332 14.9988 14.9988C15.5332 14.4643 15.8335 13.7394 15.8335 12.9835V6.01683C15.8335 4.44141 14.5589 3.16683 12.9835 3.16683H6.01683ZM13.6564 4.35433C13.9189 4.35433 14.1706 4.45859 14.3562 4.64417C14.5417 4.82975 14.646 5.08146 14.646 5.34391C14.646 5.60637 14.5417 5.85807 14.3562 6.04365C14.1706 6.22924 13.9189 6.3335 13.6564 6.3335C13.394 6.3335 13.1423 6.22924 12.9567 6.04365C12.7711 5.85807 12.6668 5.60637 12.6668 5.34391C12.6668 5.08146 12.7711 4.82975 12.9567 4.64417C13.1423 4.45859 13.394 4.35433 13.6564 4.35433ZM9.50016 5.54183C10.55 5.54183 11.5568 5.95887 12.2991 6.7012C13.0415 7.44353 13.4585 8.45035 13.4585 9.50016C13.4585 10.55 13.0415 11.5568 12.2991 12.2991C11.5568 13.0415 10.55 13.4585 9.50016 13.4585C8.45035 13.4585 7.44353 13.0415 6.7012 12.2991C5.95887 11.5568 5.54183 10.55 5.54183 9.50016C5.54183 8.45035 5.95887 7.44353 6.7012 6.7012C7.44353 5.95887 8.45035 5.54183 9.50016 5.54183ZM9.50016 7.12516C8.87027 7.12516 8.26618 7.37539 7.82078 7.82078C7.37539 8.26618 7.12516 8.87027 7.12516 9.50016C7.12516 10.1301 7.37539 10.7341 7.82078 11.1795C8.26618 11.6249 8.87027 11.8752 9.50016 11.8752C10.1301 11.8752 10.7341 11.6249 11.1795 11.1795C11.6249 10.7341 11.8752 10.1301 11.8752 9.50016C11.8752 8.87027 11.6249 8.26618 11.1795 7.82078C10.7341 7.37539 10.1301 7.12516 9.50016 7.12516Z" fill="black"/>
</svg>
