<svg width="31" height="31" viewBox="0 0 31 31" fill="none" xmlns="http://www.w3.org/2000/svg">
<path d="M6.42969 27.0028V9.00094H10.9302V8.35801C10.9302 7.10817 11.3678 6.04563 12.243 5.17039C13.1182 4.29516 14.1808 3.85754 15.4306 3.85754C16.6805 3.85754 17.743 4.29516 18.6182 5.17039C19.4935 6.04563 19.9311 7.10817 19.9311 8.35801V9.00094H24.4316V27.0028H6.42969ZM7.71554 25.717H23.1457V10.2868H19.9311V14.1443H18.6452V10.2868H12.216V14.1443H10.9302V10.2868H7.71554V25.717ZM12.216 9.00094H18.6452V8.35801C18.6452 7.45278 18.3358 6.6907 17.7169 6.07177C17.0979 5.45285 16.3359 5.14339 15.4306 5.14339C14.5254 5.14339 13.7633 5.45285 13.1444 6.07177C12.5255 6.6907 12.216 7.45278 12.216 8.35801V9.00094Z" fill="black"/>
</svg>
